<svg id="heizung" class="ameisen-3 stroeme t-stroeme" width="2753px" height="2097px"  data-name="Ebene 2" xmlns="http://www.w3.org/2000/svg" viewBox="0 0 2753.5 2097.01">
    <defs>
        <style>
            .cls-1, .cls-2, .cls-3 {
            fill: none;
            stroke: #000;
            stroke-width: 6px;
            }
            .cls-1, .cls-3 {
            stroke-linecap: round;
            }
            .cls-3 {
            stroke-linejoin: round;
            }
        </style>
    </defs>
    <g id="Heizung-Kuehlung">
        <path id="Pfad_92"  class="cls-3" d="m452.64,803.49l-2.96-545.03"/>
        <path id="Pfad_93"  class="cls-3" d="m300.57,3l.53,184.22c.1,7.89-5.45,14.38-12.41,14.5l-30.88.58"/>
        <path id="Pfad_94"  class="cls-1" d="m3,709.74l448.45.04"/>
        <path id="Pfad_95"  class="cls-3" d="m452.73,784.02l232.07-.27c6.95-.05,12.62,5.53,12.7,12.47l12.73,1285.32c.07,6.91,5.7,12.47,12.61,12.47h47.36"/>
        <path id="Pfad_96"  class="cls-3" d="m107.03,226.68l-69.71.59c-7.16.07-12.91,5.78-12.83,12.75l1.57,222.52"/>
        <path id="Pfad_97"  class="cls-1" d="m672.92,1841.63h31.57"/>
        <path id="Pfad_98"  class="cls-2" d="m704.2,1393.35l2049.28,21.35"/>
        <path id="Pfad_99"  class="cls-1" d="m197.5,411.59l252.59-.68"/>
        <path id="Pfad_100"  class="cls-3" d="m258.11,258.34l288.11-.62,2.57-.03c6.89-.07,12.56,5.41,12.73,12.3v7.1s.4,87.27.4,87.27"/>
    </g>
</svg>