<svg xmlns="http://www.w3.org/2000/svg" xmlns:xlink="http://www.w3.org/1999/xlink" width="62" height="62" viewBox="0 0 62 62">
  <defs>
    <filter id="Ellipse" x="0" y="0" width="62" height="62" filterUnits="userSpaceOnUse">
      <feOffset dy="3" input="SourceAlpha"/>
      <feGaussianBlur stdDeviation="3" result="blur"/>
      <feFlood flood-color="#fff"/>
      <feComposite operator="in" in2="blur"/>
      <feComposite in="SourceGraphic"/>
    </filter>
  </defs>
  <g id="BTN_Schliessen" transform="translate(8.596 5.433)">
    <g transform="matrix(1, 0, 0, 1, -8.6, -5.43)" filter="url(#Ellipse)">
      <g id="Ellipse-2" data-name="Ellipse" transform="translate(9 6)" fill="#e1e5e9" stroke="#fff" stroke-width="1">
        <circle cx="22" cy="22" r="22" stroke="none"/>
        <circle cx="22" cy="22" r="21.5" fill="none"/>
      </g>
    </g>
    <path id="X" d="M176.54,176.54a1.9,1.9,0,0,1,2.7,0l6.3,6.3,6.3-6.3a1.912,1.912,0,1,1,2.7,2.7l-6.3,6.3,6.3,6.3a1.912,1.912,0,1,1-2.7,2.7l-6.3-6.3-6.3,6.3a1.912,1.912,0,1,1-2.7-2.7l6.3-6.3-6.3-6.3A1.9,1.9,0,0,1,176.54,176.54Z" transform="translate(-163.145 -162.982)" fill="#0098a1"/>
  </g>
</svg>
